<mxfile host="app.diagrams.net" modified="2021-09-17T13:52:15.006Z" agent="5.0 (Macintosh; Intel Mac OS X 10_15_7) AppleWebKit/537.36 (KHTML, like Gecko) Chrome/93.0.4577.63 Safari/537.36" etag="rTbIqXnDGWtvJGGqBefH" version="15.2.9" type="github">
  <diagram id="yq6AKoY6Dg_BBQN1_GT5" name="Page-1">
    <mxGraphModel dx="1351" dy="796" grid="1" gridSize="10" guides="1" tooltips="1" connect="1" arrows="1" fold="1" page="1" pageScale="1" pageWidth="2339" pageHeight="3300" math="0" shadow="0">
      <root>
        <mxCell id="0" />
        <mxCell id="1" parent="0" />
        <mxCell id="It4V4VKw1bJQXfxjGY4P-1" value="" style="rounded=1;arcSize=10;dashed=0;fillColor=none;gradientColor=none;strokeWidth=2;" vertex="1" parent="1">
          <mxGeometry x="160" y="130" width="690" height="600" as="geometry" />
        </mxCell>
        <mxCell id="It4V4VKw1bJQXfxjGY4P-2" value="" style="dashed=0;html=1;shape=mxgraph.aws3.cloud;fillColor=#F58536;gradientColor=none;dashed=0;" vertex="1" parent="1">
          <mxGeometry x="220" y="110" width="52" height="36" as="geometry" />
        </mxCell>
        <mxCell id="It4V4VKw1bJQXfxjGY4P-3" value="" style="outlineConnect=0;dashed=0;verticalLabelPosition=bottom;verticalAlign=top;align=center;html=1;shape=mxgraph.aws3.cloudwatch;fillColor=#759C3E;gradientColor=none;" vertex="1" parent="1">
          <mxGeometry x="790" y="330" width="50" height="43" as="geometry" />
        </mxCell>
        <mxCell id="It4V4VKw1bJQXfxjGY4P-4" value="Amazon Cloud Watch" style="text;html=1;strokeColor=none;fillColor=none;align=center;verticalAlign=middle;whiteSpace=wrap;rounded=0;" vertex="1" parent="1">
          <mxGeometry x="770" y="390" width="90" height="20" as="geometry" />
        </mxCell>
        <mxCell id="It4V4VKw1bJQXfxjGY4P-8" value="Amazon Cloudfront" style="sketch=0;outlineConnect=0;fontColor=#232F3E;gradientColor=none;strokeColor=#ffffff;fillColor=#232F3E;dashed=0;verticalLabelPosition=middle;verticalAlign=bottom;align=center;html=1;whiteSpace=wrap;fontSize=10;fontStyle=1;spacing=3;shape=mxgraph.aws4.productIcon;prIcon=mxgraph.aws4.cloudfront;" vertex="1" parent="1">
          <mxGeometry x="390" y="73" width="80" height="110" as="geometry" />
        </mxCell>
        <mxCell id="It4V4VKw1bJQXfxjGY4P-10" value="Amazon SNS" style="sketch=0;outlineConnect=0;fontColor=#232F3E;gradientColor=none;strokeColor=#ffffff;fillColor=#232F3E;dashed=0;verticalLabelPosition=middle;verticalAlign=bottom;align=center;html=1;whiteSpace=wrap;fontSize=10;fontStyle=1;spacing=3;shape=mxgraph.aws4.productIcon;prIcon=mxgraph.aws4.sns;" vertex="1" parent="1">
          <mxGeometry x="810" y="490" width="80" height="100" as="geometry" />
        </mxCell>
        <mxCell id="It4V4VKw1bJQXfxjGY4P-13" value="VPC" style="points=[[0,0],[0.25,0],[0.5,0],[0.75,0],[1,0],[1,0.25],[1,0.5],[1,0.75],[1,1],[0.75,1],[0.5,1],[0.25,1],[0,1],[0,0.75],[0,0.5],[0,0.25]];outlineConnect=0;gradientColor=none;html=1;whiteSpace=wrap;fontSize=12;fontStyle=0;shape=mxgraph.aws4.group;grIcon=mxgraph.aws4.group_vpc;strokeColor=#248814;fillColor=none;verticalAlign=top;align=left;spacingLeft=30;fontColor=#AAB7B8;dashed=0;" vertex="1" parent="1">
          <mxGeometry x="300" y="200" width="450" height="460" as="geometry" />
        </mxCell>
        <mxCell id="It4V4VKw1bJQXfxjGY4P-14" value="Internet&#xa;gateway" style="sketch=0;outlineConnect=0;fontColor=#232F3E;gradientColor=none;strokeColor=#232F3E;fillColor=#ffffff;dashed=0;verticalLabelPosition=bottom;verticalAlign=top;align=center;html=1;fontSize=12;fontStyle=0;aspect=fixed;shape=mxgraph.aws4.resourceIcon;resIcon=mxgraph.aws4.internet_gateway;" vertex="1" parent="1">
          <mxGeometry x="510" y="150" width="60" height="60" as="geometry" />
        </mxCell>
        <mxCell id="It4V4VKw1bJQXfxjGY4P-15" value="" style="outlineConnect=0;dashed=0;verticalLabelPosition=bottom;verticalAlign=top;align=center;html=1;shape=mxgraph.aws3.s3;fillColor=#E05243;gradientColor=none;" vertex="1" parent="1">
          <mxGeometry x="135.25" y="444" width="56.5" height="63" as="geometry" />
        </mxCell>
        <mxCell id="It4V4VKw1bJQXfxjGY4P-16" value="" style="outlineConnect=0;dashed=0;verticalLabelPosition=bottom;verticalAlign=top;align=center;html=1;shape=mxgraph.aws3.snowball;fillColor=#E05243;gradientColor=none;" vertex="1" parent="1">
          <mxGeometry x="40" y="450" width="50" height="57" as="geometry" />
        </mxCell>
        <mxCell id="It4V4VKw1bJQXfxjGY4P-17" value="Amazon&lt;br&gt;&amp;nbsp;Snowball" style="text;html=1;align=center;verticalAlign=middle;resizable=0;points=[];autosize=1;strokeColor=none;fillColor=none;" vertex="1" parent="1">
          <mxGeometry x="35" y="515" width="70" height="30" as="geometry" />
        </mxCell>
        <mxCell id="It4V4VKw1bJQXfxjGY4P-18" value="AWS S3" style="text;html=1;align=center;verticalAlign=middle;resizable=0;points=[];autosize=1;strokeColor=none;fillColor=none;" vertex="1" parent="1">
          <mxGeometry x="130" y="515" width="60" height="20" as="geometry" />
        </mxCell>
        <mxCell id="It4V4VKw1bJQXfxjGY4P-19" value="" style="outlineConnect=0;dashed=0;verticalLabelPosition=bottom;verticalAlign=top;align=center;html=1;shape=mxgraph.aws3.kinesis;fillColor=#F58534;gradientColor=none;" vertex="1" parent="1">
          <mxGeometry x="212.26" y="452" width="57.75" height="55" as="geometry" />
        </mxCell>
        <mxCell id="It4V4VKw1bJQXfxjGY4P-20" value="Kinesis" style="text;html=1;align=center;verticalAlign=middle;resizable=0;points=[];autosize=1;strokeColor=none;fillColor=none;" vertex="1" parent="1">
          <mxGeometry x="216.13" y="520" width="50" height="20" as="geometry" />
        </mxCell>
        <mxCell id="It4V4VKw1bJQXfxjGY4P-23" value="" style="rounded=1;arcSize=10;dashed=1;strokeColor=#ff0000;fillColor=none;gradientColor=none;dashPattern=8 4;strokeWidth=2;" vertex="1" parent="1">
          <mxGeometry x="280" y="183" width="490" height="500" as="geometry" />
        </mxCell>
        <mxCell id="It4V4VKw1bJQXfxjGY4P-24" value="Security Group" style="text;html=1;align=center;verticalAlign=middle;resizable=0;points=[];autosize=1;strokeColor=none;fillColor=none;" vertex="1" parent="1">
          <mxGeometry x="660" y="163" width="100" height="20" as="geometry" />
        </mxCell>
        <mxCell id="It4V4VKw1bJQXfxjGY4P-25" value="" style="rounded=1;arcSize=10;dashed=1;strokeColor=#F59D56;fillColor=none;gradientColor=none;dashPattern=8 4;strokeWidth=2;" vertex="1" parent="1">
          <mxGeometry x="330" y="250" width="170" height="390" as="geometry" />
        </mxCell>
        <mxCell id="It4V4VKw1bJQXfxjGY4P-26" value="AZ 1" style="text;html=1;align=center;verticalAlign=middle;resizable=0;points=[];autosize=1;strokeColor=none;fillColor=none;" vertex="1" parent="1">
          <mxGeometry x="380" y="620" width="40" height="20" as="geometry" />
        </mxCell>
        <mxCell id="It4V4VKw1bJQXfxjGY4P-27" value="" style="rounded=1;arcSize=10;dashed=1;strokeColor=#F59D56;fillColor=none;gradientColor=none;dashPattern=8 4;strokeWidth=2;" vertex="1" parent="1">
          <mxGeometry x="560" y="250" width="170" height="390" as="geometry" />
        </mxCell>
        <mxCell id="It4V4VKw1bJQXfxjGY4P-28" value="AZ 2" style="text;html=1;align=center;verticalAlign=middle;resizable=0;points=[];autosize=1;strokeColor=none;fillColor=none;" vertex="1" parent="1">
          <mxGeometry x="625" y="620" width="40" height="20" as="geometry" />
        </mxCell>
        <mxCell id="It4V4VKw1bJQXfxjGY4P-29" value="" style="outlineConnect=0;dashed=0;verticalLabelPosition=bottom;verticalAlign=top;align=center;html=1;shape=mxgraph.aws3.lambda_function;fillColor=#F58534;gradientColor=none;" vertex="1" parent="1">
          <mxGeometry x="204" y="331" width="47" height="42" as="geometry" />
        </mxCell>
        <mxCell id="It4V4VKw1bJQXfxjGY4P-30" value="Lambda" style="text;html=1;align=center;verticalAlign=middle;resizable=0;points=[];autosize=1;strokeColor=none;fillColor=none;" vertex="1" parent="1">
          <mxGeometry x="197.5" y="380.5" width="60" height="20" as="geometry" />
        </mxCell>
        <mxCell id="It4V4VKw1bJQXfxjGY4P-31" value="" style="outlineConnect=0;dashed=0;verticalLabelPosition=bottom;verticalAlign=top;align=center;html=1;shape=mxgraph.aws3.vpc_nat_gateway;fillColor=#F58536;gradientColor=none;" vertex="1" parent="1">
          <mxGeometry x="390" y="270" width="40" height="32" as="geometry" />
        </mxCell>
        <mxCell id="It4V4VKw1bJQXfxjGY4P-32" value="" style="outlineConnect=0;dashed=0;verticalLabelPosition=bottom;verticalAlign=top;align=center;html=1;shape=mxgraph.aws3.vpc_nat_gateway;fillColor=#F58536;gradientColor=none;" vertex="1" parent="1">
          <mxGeometry x="625" y="270" width="40" height="32" as="geometry" />
        </mxCell>
        <mxCell id="It4V4VKw1bJQXfxjGY4P-34" value="" style="outlineConnect=0;dashed=0;verticalLabelPosition=bottom;verticalAlign=top;align=center;html=1;shape=mxgraph.aws3.elastic_load_balancing;fillColor=#F58534;gradientColor=none;" vertex="1" parent="1">
          <mxGeometry x="502" y="294" width="55" height="43" as="geometry" />
        </mxCell>
        <mxCell id="It4V4VKw1bJQXfxjGY4P-35" value="ELB" style="text;html=1;align=center;verticalAlign=middle;resizable=0;points=[];autosize=1;strokeColor=none;fillColor=none;" vertex="1" parent="1">
          <mxGeometry x="505" y="270" width="40" height="20" as="geometry" />
        </mxCell>
        <mxCell id="It4V4VKw1bJQXfxjGY4P-39" value="EC2 P3" style="text;html=1;align=center;verticalAlign=middle;resizable=0;points=[];autosize=1;strokeColor=none;fillColor=none;" vertex="1" parent="1">
          <mxGeometry x="614.5" y="427" width="60" height="20" as="geometry" />
        </mxCell>
        <mxCell id="It4V4VKw1bJQXfxjGY4P-40" value="" style="sketch=0;points=[[0,0,0],[0.25,0,0],[0.5,0,0],[0.75,0,0],[1,0,0],[0,1,0],[0.25,1,0],[0.5,1,0],[0.75,1,0],[1,1,0],[0,0.25,0],[0,0.5,0],[0,0.75,0],[1,0.25,0],[1,0.5,0],[1,0.75,0]];outlineConnect=0;fontColor=#232F3E;gradientColor=#F78E04;gradientDirection=north;fillColor=#D05C17;strokeColor=#ffffff;dashed=0;verticalLabelPosition=bottom;verticalAlign=top;align=center;html=1;fontSize=12;fontStyle=0;aspect=fixed;shape=mxgraph.aws4.resourceIcon;resIcon=mxgraph.aws4.auto_scaling2;" vertex="1" parent="1">
          <mxGeometry x="510" y="371" width="39" height="39" as="geometry" />
        </mxCell>
        <mxCell id="It4V4VKw1bJQXfxjGY4P-41" value="" style="rounded=1;arcSize=10;dashed=1;fillColor=none;gradientColor=none;dashPattern=8 3 1 3;strokeWidth=2;" vertex="1" parent="1">
          <mxGeometry x="355" y="353" width="349" height="94" as="geometry" />
        </mxCell>
        <mxCell id="It4V4VKw1bJQXfxjGY4P-42" value="" style="sketch=0;points=[[0,0,0],[0.25,0,0],[0.5,0,0],[0.75,0,0],[1,0,0],[0,1,0],[0.25,1,0],[0.5,1,0],[0.75,1,0],[1,1,0],[0,0.25,0],[0,0.5,0],[0,0.75,0],[1,0.25,0],[1,0.5,0],[1,0.75,0]];outlineConnect=0;fontColor=#232F3E;gradientColor=#F54749;gradientDirection=north;fillColor=#C7131F;strokeColor=#ffffff;dashed=0;verticalLabelPosition=bottom;verticalAlign=top;align=center;html=1;fontSize=12;fontStyle=0;aspect=fixed;shape=mxgraph.aws4.resourceIcon;resIcon=mxgraph.aws4.key_management_service;" vertex="1" parent="1">
          <mxGeometry x="100" y="410" width="30" height="30" as="geometry" />
        </mxCell>
        <mxCell id="It4V4VKw1bJQXfxjGY4P-43" value="KMS" style="text;html=1;align=center;verticalAlign=middle;resizable=0;points=[];autosize=1;strokeColor=none;fillColor=none;" vertex="1" parent="1">
          <mxGeometry x="95.25" y="440" width="40" height="20" as="geometry" />
        </mxCell>
        <mxCell id="It4V4VKw1bJQXfxjGY4P-44" value="Security group" style="fillColor=none;strokeColor=#DD3522;verticalAlign=top;fontStyle=0;fontColor=#DD3522;" vertex="1" parent="1">
          <mxGeometry x="355" y="327" width="130" height="130" as="geometry" />
        </mxCell>
        <mxCell id="It4V4VKw1bJQXfxjGY4P-45" value="Security group" style="fillColor=none;strokeColor=#DD3522;verticalAlign=top;fontStyle=0;fontColor=#DD3522;" vertex="1" parent="1">
          <mxGeometry x="580" y="327" width="130" height="130" as="geometry" />
        </mxCell>
        <mxCell id="It4V4VKw1bJQXfxjGY4P-46" value="" style="outlineConnect=0;dashed=0;verticalLabelPosition=bottom;verticalAlign=top;align=center;html=1;shape=mxgraph.aws3.rds_db_instance;fillColor=#2E73B8;gradientColor=none;" vertex="1" parent="1">
          <mxGeometry x="386" y="515" width="49.5" height="66" as="geometry" />
        </mxCell>
        <mxCell id="It4V4VKw1bJQXfxjGY4P-47" value="" style="outlineConnect=0;dashed=0;verticalLabelPosition=bottom;verticalAlign=top;align=center;html=1;shape=mxgraph.aws3.rds_db_instance_standby_multi_az;fillColor=#2E73B8;gradientColor=none;" vertex="1" parent="1">
          <mxGeometry x="625" y="515" width="49.5" height="66" as="geometry" />
        </mxCell>
        <mxCell id="It4V4VKw1bJQXfxjGY4P-48" value="Security group" style="fillColor=none;strokeColor=#DD3522;verticalAlign=top;fontStyle=0;fontColor=#DD3522;" vertex="1" parent="1">
          <mxGeometry x="350" y="475" width="130" height="130" as="geometry" />
        </mxCell>
        <mxCell id="It4V4VKw1bJQXfxjGY4P-49" value="Security group" style="fillColor=none;strokeColor=#DD3522;verticalAlign=top;fontStyle=0;fontColor=#DD3522;" vertex="1" parent="1">
          <mxGeometry x="584.75" y="475" width="130" height="130" as="geometry" />
        </mxCell>
        <mxCell id="It4V4VKw1bJQXfxjGY4P-50" value="" style="outlineConnect=0;dashed=0;verticalLabelPosition=bottom;verticalAlign=top;align=center;html=1;shape=mxgraph.aws3.iam;fillColor=#759C3E;gradientColor=none;" vertex="1" parent="1">
          <mxGeometry x="794" y="219" width="42" height="81" as="geometry" />
        </mxCell>
        <mxCell id="It4V4VKw1bJQXfxjGY4P-51" value="IAM" style="text;html=1;align=center;verticalAlign=middle;resizable=0;points=[];autosize=1;strokeColor=none;fillColor=none;" vertex="1" parent="1">
          <mxGeometry x="796" y="294" width="40" height="20" as="geometry" />
        </mxCell>
        <mxCell id="It4V4VKw1bJQXfxjGY4P-52" value="" style="outlineConnect=0;dashed=0;verticalLabelPosition=bottom;verticalAlign=top;align=center;html=1;shape=mxgraph.aws3.ec2;fillColor=#F58534;gradientColor=none;" vertex="1" parent="1">
          <mxGeometry x="386" y="370.5" width="60" height="59" as="geometry" />
        </mxCell>
        <mxCell id="It4V4VKw1bJQXfxjGY4P-53" value="" style="outlineConnect=0;dashed=0;verticalLabelPosition=bottom;verticalAlign=top;align=center;html=1;shape=mxgraph.aws3.ec2;fillColor=#F58534;gradientColor=none;" vertex="1" parent="1">
          <mxGeometry x="614.5" y="370.5" width="60" height="59" as="geometry" />
        </mxCell>
        <mxCell id="It4V4VKw1bJQXfxjGY4P-54" value="EC2 P3" style="text;html=1;align=center;verticalAlign=middle;resizable=0;points=[];autosize=1;strokeColor=none;fillColor=none;" vertex="1" parent="1">
          <mxGeometry x="380.75" y="424" width="60" height="20" as="geometry" />
        </mxCell>
        <mxCell id="It4V4VKw1bJQXfxjGY4P-55" value="Amazon Redshift" style="sketch=0;outlineConnect=0;fontColor=#232F3E;gradientColor=none;strokeColor=#ffffff;fillColor=#232F3E;dashed=0;verticalLabelPosition=middle;verticalAlign=bottom;align=center;html=1;whiteSpace=wrap;fontSize=10;fontStyle=1;spacing=3;shape=mxgraph.aws4.productIcon;prIcon=mxgraph.aws4.redshift;" vertex="1" parent="1">
          <mxGeometry x="182" y="570" width="48" height="90" as="geometry" />
        </mxCell>
        <mxCell id="It4V4VKw1bJQXfxjGY4P-57" value="" style="outlineConnect=0;dashed=0;verticalLabelPosition=bottom;verticalAlign=top;align=center;html=1;shape=mxgraph.aws3.router;fillColor=#F58534;gradientColor=none;" vertex="1" parent="1">
          <mxGeometry x="134.75" y="190" width="47.25" height="40" as="geometry" />
        </mxCell>
        <mxCell id="It4V4VKw1bJQXfxjGY4P-58" value="Amazon SageMaker" style="sketch=0;outlineConnect=0;fontColor=#232F3E;gradientColor=none;strokeColor=#ffffff;fillColor=#232F3E;dashed=0;verticalLabelPosition=middle;verticalAlign=bottom;align=center;html=1;whiteSpace=wrap;fontSize=10;fontStyle=1;spacing=3;shape=mxgraph.aws4.productIcon;prIcon=mxgraph.aws4.sagemaker;" vertex="1" parent="1">
          <mxGeometry x="194.5" y="222" width="66" height="105" as="geometry" />
        </mxCell>
      </root>
    </mxGraphModel>
  </diagram>
</mxfile>
